<?xml version="1.0" encoding="utf-8"?>
<!-- Generator: Adobe Illustrator 21.0.2, SVG Export Plug-In . SVG Version: 6.00 Build 0)  -->
<svg version="1.1" id="Layer_1" xmlns="http://www.w3.org/2000/svg" xmlns:xlink="http://www.w3.org/1999/xlink" x="0px" y="0px"
	 viewBox="0 0 1000 1000" style="enable-background:new 0 0 1000 1000;" xml:space="preserve">
<style type="text/css">
	.st0{fill:none;}
	.st1{fill:#292660;}
	.st2{fill:url(#SVGID_1_);}
	.st3{fill:url(#SVGID_2_);}
	.st4{opacity:8.000000e-02;fill:url(#SVGID_3_);}
	.st5{fill:url(#SVGID_4_);}
	.st6{opacity:0.1;fill:url(#SVGID_5_);}
	.st7{fill:url(#SVGID_6_);}
	.st8{fill:#D81F26;}
	.st9{opacity:0.1;fill:url(#SVGID_7_);}
	.st10{fill:#FFFFFF;}
</style>
<g>
	<g>
		<rect class="st0" width="1000" height="1000"/>
	</g>
	<g>
		<g>
			<path class="st1" d="M322.1,711.2c-0.3,1.7-2,3.1-3.7,3.1c-1.5,0-2.6-1.1-2.6-2.5c0-0.2,0-0.4,0.1-0.6l6.4-32.5
				c0.3-1.7,2-3.1,3.7-3.1c1.5,0,2.6,1.1,2.6,2.5c0,0.2,0,0.4-0.1,0.6L322.1,711.2z"/>
			<path class="st1" d="M340.3,691c2.2-1.9,4.8-3,7.6-3c4.3,0,7.5,2.8,7.5,7.2c0,0.6-0.1,1.3-0.2,2.1l-2.8,14.2
				c-0.3,1.6-1.8,2.8-3.4,2.8c-1.4,0-2.4-1-2.4-2.4c0-0.2,0-0.3,0.1-0.5l2.6-13c0.1-0.4,0.1-0.8,0.1-1.2c0-2.6-1.7-4.3-4.3-4.3
				c-2.9,0-5.7,2.3-6.3,5.4l-2.6,13.1c-0.3,1.6-1.8,2.8-3.4,2.8c-1.4,0-2.4-1-2.4-2.4c0-0.2,0-0.3,0.1-0.5l4.1-20.6
				c0.3-1.6,1.8-2.8,3.4-2.8c1.4,0,2.3,1,2.3,2.4c0,0.2,0,0.3,0,0.5L340.3,691z"/>
			<path class="st1" d="M366.1,714.3c-3,0-5.8-1.7-7.2-4.3c-0.2-0.4-0.4-0.8-0.4-1.3c0-1.6,1.5-2.9,2.9-2.9c0.9,0,1.5,0.4,1.8,1
				c0.8,1.4,2,2.4,3.5,2.4c2.5,0,4.1-1.6,4.1-3.8c0-1.5-1-2.4-3.5-3.5c-3.1-1.4-5.1-3.4-5.1-6c0-4.4,4.4-7.9,9-7.9
				c2.4,0,4.5,1.1,5.8,2.9c0.2,0.3,0.3,0.7,0.3,1.1c0,1.4-1.4,2.6-2.8,2.6c-1.6,0-2-1.8-3.7-1.8c-1.6,0-2.8,0.9-2.8,2.3
				c0,1.2,1,2,3.4,3c3.6,1.7,5.2,3.9,5.2,6.6C376.7,710,372.3,714.3,366.1,714.3z"/>
			<path class="st1" d="M397.2,688.7c1.3,0,2.2,0.9,2.2,2.1c0,1.7-1.6,3.1-3.2,3.1h-4.2l-3.4,17.6c-0.3,1.6-1.8,2.8-3.4,2.8
				c-1.4,0-2.4-1-2.4-2.4c0-0.2,0-0.3,0.1-0.5l3.4-17.6h-2.1c-1.3,0-2.1-0.9-2.1-2.1c0-1.7,1.6-3.1,3.2-3.1h2.1l1-4.9
				c0.3-1.6,1.8-2.8,3.4-2.8c1.4,0,2.4,1,2.4,2.3c0,0.2,0,0.3-0.1,0.5l-1,4.9H397.2z"/>
			<path class="st1" d="M424.4,690.9c0.3-1.6,1.8-2.8,3.4-2.8c1.4,0,2.3,1,2.3,2.4c0,0.2,0,0.3,0,0.5l-4.1,20.6
				c-0.3,1.6-1.8,2.8-3.4,2.8c-1.4,0-2.4-1-2.4-2.4c0-0.2,0-0.3,0.1-0.5l0.3-1.3c-2.7,2.7-6.2,4.2-10.1,4.2
				c-6.2,0-10.5-4.4-10.5-10.5c0-8.7,7.8-15.8,15.7-15.8c4,0,6.8,1.4,8.5,4.2L424.4,690.9z M422.2,701.2c0.1-0.6,0.2-1.1,0.2-1.6
				c0-3.8-2.8-6.6-6.7-6.6c-5,0-9.9,4.5-9.9,9.8c0,3.8,2.8,6.5,6.7,6.5C416.9,709.4,421.3,705.8,422.2,701.2z"/>
			<path class="st1" d="M445.2,713.2l-7.4-33.2c-0.1-0.3-0.2-0.6-0.2-1c0-1.8,1.9-3.4,3.5-3.4c1.3,0,2.2,0.8,2.4,2l5.2,25.6
				l15.2-25.6c0.7-1.2,1.9-2,3.2-2c1.3,0,2.3,1,2.3,2.4c0,0.7-0.3,1.3-0.7,2l-20.3,33.2c-0.4,0.7-1,1.2-1.8,1.2
				C445.7,714.3,445.3,713.9,445.2,713.2z"/>
			<path class="st1" d="M465.9,701.2c1.4-7.4,8.6-13.2,16.3-13.2c6.8,0,11.4,4.4,11.4,10.6c0,8.6-8,15.7-16.5,15.7
				c-6.8,0-11.4-4.4-11.4-10.6C465.6,702.9,465.7,702.1,465.9,701.2z M471.6,701.2c-0.1,0.6-0.2,1.1-0.2,1.7c0,3.7,2.6,6.3,6.6,6.3
				c5,0,9.7-4.2,9.7-9.6c0-3.7-2.6-6.3-6.6-6.3C476.6,693.3,472.5,696.6,471.6,701.2z"/>
			<path class="st1" d="M501.7,690.9c0.3-1.6,1.8-2.8,3.4-2.8c1.4,0,2.3,1,2.3,2.4c0,0.2,0,0.3,0,0.5l-4.1,20.6
				c-0.3,1.6-1.8,2.8-3.4,2.8c-1.4,0-2.4-1-2.4-2.4c0-0.2,0-0.3,0.1-0.5L501.7,690.9z M506.1,682.7c-1.8,0-3-1.3-3-3
				c0-2.3,2.3-4.3,4.4-4.3c1.7,0,3,1.2,3,2.9C510.5,680.6,508.3,682.7,506.1,682.7z"/>
			<path class="st1" d="M511.7,701.2c1.4-7.4,8.6-13.2,16.3-13.2c3.3,0,6,1.2,8,3c0.5,0.4,0.8,1,0.8,1.7c0,1.6-1.6,3-3.2,3
				c-0.7,0-1.3-0.3-1.7-0.7c-1.2-1.2-2.9-1.8-4.9-1.8c-5,0-9.7,4.2-9.7,9.6c0,3.7,2.6,6.3,6.6,6.3c2,0,4-0.6,5.7-1.8
				c0.5-0.4,1.2-0.7,1.9-0.7c1.3,0,2.2,0.9,2.2,2.1c0,3.2-7,5.6-10.8,5.6c-6.8,0-11.4-4.4-11.4-10.6
				C511.4,702.9,511.5,702.1,511.7,701.2z"/>
			<path class="st1" d="M550.1,714.3c-6.8,0-11.4-4.4-11.4-10.6c0-8.6,8.1-15.7,16.2-15.7c6.5,0,11,4.5,11,10.7c0,1.2,0,4-2.6,4
				h-18.8v0.3c0,4,3.2,6.1,6.8,6.1c2.8,0,5.2-1.4,6.9-3c0.7-0.7,1.5-1.1,2.4-1.1c1.3,0,2.2,0.9,2.2,2.1c0,0.9-0.4,1.8-1.1,2.4
				C558.5,712.5,554.4,714.3,550.1,714.3z M560.3,698.5c-0.1-3.6-2.8-5.2-6.5-5.2c-2.9,0-6.5,1.9-8.3,5.2H560.3z"/>
		</g>
		<g>
			<path class="st1" d="M352.2,748.2h-16c-7.7,0-8.8,1.5-10,7.1l-5.7,26.1c-1.2,5.5-0.7,6.6,6.7,6.6h16.3l-1.9,9.1l-16.5,1.3
				c-11.9,0.9-27.5,0-23.9-16.9l5.9-26.9c3.3-15.4,18.4-17.9,31-16.9l16.2,1.3L352.2,748.2z"/>
			<path class="st1" d="M394.7,797.7c-16.6,0-17-0.7-13.7-16.1l3.6-16.6c1.4-6.1,0.7-6.8-4.7-6.8h-7.2l-8.5,39.5h-17.1l13.8-63.1
				c17,0,17,0,13.7,15.4l12.9-1.5c9,0,17.1,4.1,14.4,16.8L394.7,797.7z"/>
			<path class="st1" d="M451.1,796.7l-25.3,1.7c-14.1,1-22.4-3.4-19.1-18.3c2.4-11.1,10.2-15.8,21.4-15.8l12.8,1.4l0.5-2.5
				c1-4.5-2.4-4.2-9.8-4.2h-17.4l1.7-8.4l18.5-1.7c19.8,0,26.1,5.1,23.3,17.4L451.1,796.7z M431.4,773.4c-6.8,0-6.5,2.9-7.8,8.6
				c-1.4,6.2-0.5,6.8,4.3,6.8h7.8l3.4-15.4H431.4z"/>
			<path class="st1" d="M508.3,797.7c-17.3,0-17.3,0-14.1-14.3l3.8-17.5c1.3-6,0.5-6.8-4.3-6.8H486l-8.4,38.6h-17.3l10.3-47.2
				l26.1-1.8c14.3-1,21.2,5.5,18.7,16.8L508.3,797.7z"/>
			<path class="st1" d="M566.3,797.7c-17.3,0-17.3,0-14.1-14.3l3.8-17.5c1.3-6,0.5-6.8-4.3-6.8H544l-8.4,38.6h-17.3l10.3-47.2
				l26.1-1.8c14.3-1,21.2,5.5,18.7,16.8L566.3,797.7z"/>
			<path class="st1" d="M608.4,782.8l-12.6-1.6c-0.9,4.2-2.5,7.5,4.1,7.5h23.4l-2,8.3l-24.1,1.4c-15.3,0.9-21.2-5.5-18.7-16.8
				l3.5-16.2c2.4-11,11.8-16.6,25.9-16.6h3.3c13.1,0,21.6,4,18.6,18.2C627.2,778.7,622.7,782.7,608.4,782.8z M608.5,758.6h-1.7
				c-4.6,0-6.2,1.3-7.5,7.1l-1.8,8.1h4.5c7.4,0,9.1-0.6,10.8-8.4C614.1,759.2,613.3,758.6,608.5,758.6z"/>
			<path class="st1" d="M649,797.7h-17.1l13.8-63.1c16.9,0,17,0,13.8,14.8L649,797.7z"/>
			<path class="st1" d="M704.9,758.5h-14.1c-6.1,0-7.3,1.9-8.2,5.5l18.7,10.1c-0.2,3.3-0.4,6.6-0.7,8.3c-2.7,12.3-11.6,16-28.4,16
				l-14.6-1.4l1.8-8.4h14.5c6.5,0,7.8-1.2,9-6.8l-18.8-10c-0.2-2.4-0.4-5.1,0.1-7.2c2.7-12.4,12.2-16,28.3-16l14.2,1.4L704.9,758.5z
				"/>
		</g>
		<g>
			<linearGradient id="SVGID_1_" gradientUnits="userSpaceOnUse" x1="499.6941" y1="181.6563" x2="499.6941" y2="506.0271">
				<stop  offset="0" style="stop-color:#FFDF01"/>
				<stop  offset="1" style="stop-color:#EFCF00"/>
			</linearGradient>
			<path class="st2" d="M591.6,381.5L591.6,381.5L533.8,207c-4.4-14.6-18-25.3-34.1-25.3c-15.8,0-29.2,10.3-33.9,24.6l0,0l-0.1,0.3
				c0,0.1-0.1,0.2-0.1,0.3l-57.8,174.7h0c-2.8,9-4.3,18.5-4.3,28.4c0,53.1,43,96.1,96.1,96.1s96.1-43,96.1-96.1
				C595.8,400,594.3,390.5,591.6,381.5z"/>
			<linearGradient id="SVGID_2_" gradientUnits="userSpaceOnUse" x1="403.2196" y1="456.7823" x2="652.403" y2="456.7823">
				<stop  offset="0" style="stop-color:#FFDF01"/>
				<stop  offset="1" style="stop-color:#EFCF00"/>
			</linearGradient>
			<path class="st3" d="M443.8,489.2L443.8,489.2L596,592.4c12.4,8.9,29.7,9.1,42.5-0.7c12.5-9.6,16.9-26,11.9-40.2l0,0l-0.1-0.3
				c0-0.1-0.1-0.2-0.1-0.3l-60.7-173.7l0,0c-3.3-8.8-7.9-17.3-13.9-25.1c-32.4-42.1-92.7-50-134.8-17.6s-50,92.7-17.6,134.8
				C429.2,477.1,436.2,483.8,443.8,489.2z"/>
			<linearGradient id="SVGID_3_" gradientUnits="userSpaceOnUse" x1="590.7499" y1="430.2508" x2="524.4133" y2="545.1492">
				<stop  offset="0" style="stop-color:#000000"/>
				<stop  offset="1" style="stop-color:#000000;stop-opacity:0"/>
			</linearGradient>
			<path class="st4" d="M488.5,524.4c0,0,19.4,2.9,34-0.6c39.6-7,97.2-60.6,97.2-60.6l-7.2-20.4L488.5,524.4z"/>
			<linearGradient id="SVGID_4_" gradientUnits="userSpaceOnUse" x1="596.4084" y1="456.7372" x2="347.2249" y2="456.7372">
				<stop  offset="0" style="stop-color:#00D1FF"/>
				<stop  offset="1" style="stop-color:#00A4FF"/>
			</linearGradient>
			<path class="st5" d="M555.8,489.1L555.8,489.1L403.6,592.3c-12.4,8.9-29.7,9.1-42.5-0.7c-12.5-9.6-16.9-26-11.9-40.2l0,0l0.1-0.3
				c0-0.1,0.1-0.2,0.1-0.3l60.7-173.7l0,0c3.3-8.8,7.9-17.3,13.9-25.1c32.4-42.1,92.7-50,134.8-17.6c42.1,32.4,50,92.7,17.6,134.8
				C570.5,477.1,563.5,483.7,555.8,489.1z"/>
			<linearGradient id="SVGID_5_" gradientUnits="userSpaceOnUse" x1="549.0467" y1="483.0468" x2="379.4992" y2="483.0468">
				<stop  offset="0" style="stop-color:#000000"/>
				<stop  offset="1" style="stop-color:#000000;stop-opacity:0"/>
			</linearGradient>
			<path class="st6" d="M387.9,440.7l-8.4,24c0,0,42.8,29.7,57.4,39.2c29.3,19.1,49.5,21.5,65.6,21.5c0.2,0,22.6-15.4,22.6-15.4
				s23.8-16.3,23.9-16.4L387.9,440.7z"/>
			<linearGradient id="SVGID_6_" gradientUnits="userSpaceOnUse" x1="595.8298" y1="410.7223" x2="281.1202" y2="410.7223">
				<stop  offset="0" style="stop-color:#7CD845"/>
				<stop  offset="0.266" style="stop-color:#85DE45"/>
				<stop  offset="0.6982" style="stop-color:#9DEF45"/>
				<stop  offset="1" style="stop-color:#B2FE45"/>
			</linearGradient>
			<path class="st7" d="M443.9,489.1L443.9,489.1L296.3,379.6c-12.5-8.8-18.4-25.1-13.3-40.3c5-15,19-24.5,34-24.5l0,0l0.3,0
				c0.1,0,0.2,0,0.3,0l184-0.2l0,0c9.4,0.2,18.9,1.8,28.3,4.8c50.4,16.6,77.8,71,61.2,121.4c-16.6,50.4-71,77.8-121.4,61.2
				C460.2,498.9,451.6,494.5,443.9,489.1z"/>
			<path class="st8" d="M556.1,489.2L556.1,489.2l147.7-109.5c12.5-8.8,18.4-25.1,13.3-40.3c-5-15-19-24.5-34-24.5l0,0l-0.3,0
				c-0.1,0-0.2,0-0.3,0l-184-0.2l0,0c-9.4,0.2-18.9,1.8-28.3,4.8c-50.4,16.6-77.8,71-61.2,121.4c16.6,50.4,71,77.8,121.4,61.2
				C539.8,499,548.4,494.6,556.1,489.2z"/>
			
				<linearGradient id="SVGID_7_" gradientUnits="userSpaceOnUse" x1="-724.2623" y1="677.69" x2="-724.2623" y2="535.9743" gradientTransform="matrix(0.9511 -0.309 0.309 0.9511 1017.513 -369.7204)">
				<stop  offset="0" style="stop-color:#000000"/>
				<stop  offset="1" style="stop-color:#000000;stop-opacity:0"/>
			</linearGradient>
			<path class="st9" d="M519,409l22.9,0l0-10.1l-22.9,0c-2.7,0-4.9-2.2-4.9-4.9c0-2.7,2.2-4.9,4.9-4.9l22.9,0
				c-0.7-16.2-14.2-29.2-30.5-29.2h0c-16.8,0-30.6,13.7-30.6,30.6l0,51.3c0,14.8,10.6,27.2,24.6,30l0,35.1c0,0,1.3-0.1,3.7-0.2
				c3.2-0.3,7.7-1.1,7.7-1.1l0-33.7c14.2-2.6,25.1-15.1,25.1-30.1l0-3l-22.9,0c-2.7,0-4.9-2.2-4.9-4.9v0c0-2.7,2.2-4.9,4.9-4.9
				l22.9,0l0-10.1l-22.9,0c-2.7,0-4.9-2.2-4.9-4.9S516.3,409,519,409z"/>
			<path class="st10" d="M507.9,402.6l22.9,0l0-10.1l-22.9,0c-2.7,0-4.9-2.2-4.9-4.9s2.2-4.9,4.9-4.9l22.9,0
				c-0.7-16.2-14.2-29.2-30.5-29.2h0c-16.8,0-30.6,13.7-30.6,30.6l0,51.3c0,14.8,10.6,27.2,24.6,30l0,41.5c0,0,3.1,0.2,5.5,0.2
				c3.8,0,5.9-0.2,5.9-0.2l0-41.4c14.2-2.6,25.1-15.1,25.1-30.1l0-3l-22.9,0c-2.7,0-4.9-2.2-4.9-4.9v0c0-2.7,2.2-4.9,4.9-4.9l22.9,0
				l0-10.1l-22.9,0c-2.7,0-4.9-2.2-4.9-4.9S505.2,402.6,507.9,402.6z"/>
		</g>
	</g>
</g>
</svg>
