<svg id="Layer_1" data-name="Layer 1" xmlns="http://www.w3.org/2000/svg" viewBox="0 0 1000 1000"><defs><style>.cls-1{fill:none;}.cls-2{fill:#292660;}.cls-3{fill:#efcf00;}.cls-4{opacity:0.1;}.cls-5{fill:#21d62d;}.cls-6{fill:#00a4ff;}.cls-7{fill:#d81f26;}.cls-8{opacity:0.15;}.cls-9{fill:#fff;}</style></defs><title>InstaVoice</title><rect class="cls-1" width="1000" height="1000"/><path class="cls-2" d="M289.59,780.65H270.4l12.74-58.75h19.19Z"/><path class="cls-2" d="M347.09,780.65c-17.13,0-17.13,0-14-14.17l3.77-17.31c1.26-5.92.45-6.73-4.22-6.73h-7.71l-8.34,38.21H299.46l10.22-46.82L335.52,732c14.17-1,21,5.47,18.57,16.68Z"/><path class="cls-2" d="M402.51,741.82h-14c-6,0-7.26,1.88-8.16,5.47l18.57,10a70.44,70.44,0,0,1-.72,8.25c-2.69,12.2-11.48,15.88-28.16,15.88l-14.44-1.35,1.79-8.34h14.35c6.46,0,7.71-1.17,9-6.73l-18.66-9.87a27.28,27.28,0,0,1,.09-7.17c2.69-12.29,12.11-15.87,28.07-15.87l14.08,1.34Z"/><path class="cls-2" d="M443.86,741.28l-16.14,1.34L422.78,765c-1.26,5.83-.54,6.64,4.4,6.64h10.13l-1.88,8.43-10.31,1.35c-15.34,0-22-4.49-19.28-16.68L412.74,733c6.91-.72,7.8-2.33,9.42-8.07h9.42l-1.79,8h16Z"/><path class="cls-2" d="M486.82,779.67l-25.11,1.71c-14,1-22.15-3.41-18.92-18.12,2.33-11,10.13-15.7,21.17-15.7L476.59,749l.54-2.51c1-4.48-2.42-4.12-9.69-4.12H450.23l1.7-8.34,18.3-1.71c19.64,0,25.83,5,23.14,17.22Zm-19.55-23.14c-6.73,0-6.46,2.87-7.71,8.52-1.34,6.1-.54,6.73,4.31,6.73h7.71L475,756.53Z"/><path class="cls-2" d="M536,780.65H506.28l-1.35-58.75h20l-.81,47.36h4.13l19.91-47.36h15.61Z"/><path class="cls-2" d="M604.31,765c-2.42,11.21-11.21,16.41-25.65,16.32h-3.32c-17.31,0-20.72-7.27-18.66-16.68l3.5-16.05c2.42-11,11.39-16.41,25.65-16.41h3.32c17,0,20.72,7.08,18.75,16.23ZM590.5,748.54c.9-4.21,1.08-6.73-4.75-6.73h-.54c-6.1,0-7.17,2.78-8.07,7L573.64,765c-1.35,5.92.18,6.73,4.13,6.73h1.17c6.19,0,7.18-2.69,8.07-7Z"/><path class="cls-2" d="M626.82,780.65H610l10.4-47.71h16.86Zm12.92-55c-.45,2.42-4,4.39-9.6,4.39h-1.43c-5.47,0-8.61-2-8-4.66l.81-3.68c.45-2.33,4.13-4.4,9.69-4.4h1.35c5.38,0,8.61,2.06,8,4.66Z"/><path class="cls-2" d="M680.63,741.82h-11c-7.09,0-8,1.79-9.15,7L656.87,765c-1.17,5.29-1,6.73,5.92,6.73h11.3l-1.79,8.43-11.84,1.26c-21.44,0-23-7.62-20.27-19.64l2.87-12.92c3.5-15.25,16.77-16.59,27.89-16.59l11.57,1.26Z"/><path class="cls-2" d="M709.69,765.86l-12.47-1.61c-.9,4.13-2.51,7.44,4,7.44h23.23l-2,8.25-23.86,1.44c-15.16.9-21-5.47-18.57-16.68l3.5-16.05c2.42-10.94,11.66-16.41,25.65-16.41h3.32c13,0,21.44,3.95,18.39,18C728.35,761.82,723.86,765.77,709.69,765.86Zm.09-23.95h-1.7c-4.57,0-6.19,1.26-7.44,7L698.84,757h4.48c7.35,0,9.06-.63,10.67-8.34C715.34,742.54,714.54,741.91,709.78,741.91Z"/><path class="cls-3" d="M439.28,477.69,384,567.7a93.54,93.54,0,0,1-77.79,44.58h0L415.66,460.64Z"/><path class="cls-4" d="M386.83,535.73l-42.44,58.66s14.61-2.67,24.3-7.79Z"/><path class="cls-5" d="M453.95,485.17l-42.67,69.51A72.23,72.23,0,0,1,351.2,589.1h0L435.7,472Z"/><path class="cls-6" d="M361,518.45l76.49-109.31,31-40.24s25,19.84,85.44,36.21c0,0,.21,28.45.09,29-9,44-66.81,136.2-174.58,109.47-7.5-1.86-29.49-9.28-29.49-9.28Z"/><path class="cls-7" d="M287.94,315.38,460,383.52c56.08,22.47,56.53,102.72.69,125.77-.71.29-1.42.59-2.14.86C379.49,540,333.89,477.61,333.89,477.61l48.54-9.75s-49.55-3.92-74.34-49.41l65.43-2.63S293.25,402.58,287.94,315.38Z"/><path class="cls-7" d="M456.21,263.4c4.19,13.58-7.34,27.22-24.29,34.43-14.69,6.25-35.28-1.18-39.47-14.76Z"/><path class="cls-7" d="M464.4,267c-4.72,11.63-19.84,16.48-33.78,10.83S409.82,258.55,412,245.72Z"/><path class="cls-7" d="M456.18,263.37c10.75,11,5.49,30.72-8.4,47.14-15.85,18.73-36.37,18-47.12,7Z"/><path class="cls-8" d="M554.25,433.63c-47.36,12.42-87.5-14.59-108.59-55.69l18,7s36.3,44.37,90.88,48.85"/><path class="cls-3" d="M711.72,321.29C688.12,230.1,589,184.22,527,203.08c-1.24.38-69.1,79.15-48.93,165.09,0,0,40.81-15.81,76.28-15,41.75.95,76.2-29,116.3-35.32C685.68,315.49,711.72,321.29,711.72,321.29Z"/><path class="cls-3" d="M477.32,290.15c-26.06,46.93-2,96.08,37.79,132.16,27.53,25,107.12,7.16,135.64-40.67,0,0-51.69,9.22-96.11-28.82C536.36,337.16,477.32,290.15,477.32,290.15Z"/><path class="cls-2" d="M610.45,251.55s-20.92-.68-24.2-1.93a6.35,6.35,0,1,1,4.56-11.85C594.09,239,610.45,251.55,610.45,251.55Z"/><path class="cls-7" d="M554.58,433.77a117.25,117.25,0,1,1,0-234.5Z"/><path class="cls-9" d="M554.58,353a71.56,71.56,0,1,1,0-143.13Z"/><circle class="cls-2" cx="522.95" cy="277.11" r="26.74" transform="translate(-0.94 1.79) rotate(-0.2)"/><path class="cls-8" d="M423.22,273.58s8.91,7,19.82,6.5c0,0-12.14,5.5-24.93-4.93Z"/><path class="cls-8" d="M439.47,294s-10.53,7.22-21,6.06L412,306.42S430,307,439.47,294Z"/><circle class="cls-9" cx="506.53" cy="262.97" r="10.37" transform="translate(-0.89 1.73) rotate(-0.2)"/><path class="cls-8" d="M373.52,415.82s28.95,11.61,61.55-2.41c0,0-34.28,26.29-84.28,3.33Z"/><path class="cls-8" d="M382.36,467.87s30.55,6.27,60.14-13.32c0,0-29.2,31.52-82.49,17.82Z"/><path class="cls-8" d="M369.29,506.57s39.21,23.47,89.27,3.57c0,0,16.07-5.77,26.06-17.39,0,0-34.92,53-121.27,22.4Z"/></svg>